# xmcd
#
# Track frame offsets: 
#        183
#        15523
#        34133
#        50623
#        68095
#        82575
#        97450
#        116443
#        137035
#        152165
#        165663
#        179320
#
# Disc length: 2558 seconds
#
# Revision: 5
# Processed by: cddbd v1.5.2PL0 Copyright (c) Steve Scherf et al.
# Submitted via: ExactAudioCopy v1.1
#
DISCID=9609fc0c
DTITLE=George Fox - With All My Might
DYEAR=1989
DGENRE=Country
TTITLE0=Angelina
TTITLE1=This House (Is Haunted)
TTITLE2=Lonesome Avenue Goodbye (Goldmine)
TTITLE3=No Trespassing
TTITLE4=I Threw It All Away
TTITLE5=Hey Johnny
TTITLE6=Comin' Around
TTITLE7=With All My Might
TTITLE8=Mr. President
TTITLE9=Bachelor Girl
TTITLE10=Lonely Tears
TTITLE11=Lime Rickey
EXTD=
EXTT0=
EXTT1=
EXTT2=
EXTT3=
EXTT4=
EXTT5=
EXTT6=
EXTT7=
EXTT8=
EXTT9=
EXTT10=
EXTT11=
PLAYORDER=
